<svg xmlns="http://www.w3.org/2000/svg" viewBox="0 0 848 848">
    <g>
        <path fill="#263238"
              d="M 86.35 0 L 761.65 0 C 809.308 0 848 38.692 848 86.35 L 848 761.65 C 848 809.308 809.308 848 761.65 848 L 86.35 848 C 38.692 848 0 809.308 0 761.65 L 0 86.35 C 0 38.692 38.692 0 86.35 0 Z"/>
        <path
            d=" M 559 525.07 L 558.87 523.8 L 558.04 522.63 L 556.8 515.26 C 556.8 514.08 556.8 512.88 555.74 512.07 L 555.66 511.65 C 555.66 510.48 555.66 509.29 554.59 508.47 L 554.05 508.28 L 554.05 506.21 C 557.91 505 559.43 501.75 560.25 498.21 C 564 482.28 569.78 466.94 573.78 451.1 C 575.42 444.6 578.86 438.82 579.72 431.96 C 580.525 425.33 582.29 418.852 584.96 412.73 C 589.25 403.11 591.31 392.87 594.36 382.92 C 598.15 370.55 600.36 357.66 604.67 345.48 C 610.56 328.59 614 310.94 620 294 C 624.06 282.51 626.92 270.59 630.72 259 C 633.9 249.29 636.72 239.42 639.57 229.68 C 643.38 216.5 646.96 203.21 650.94 190.05 C 651.67 187.62 653.34 187.18 655.4 187.05 C 657.04 192.05 658.72 197.13 660.3 202.19 Q 729.71 423.84 799.1 645.5 C 802.05 654.92 797.76 660.73 787.52 660.81 C 771.47 660.95 755.41 660.81 739.36 660.81 L 621.36 660.81 C 607.36 660.81 600.75 655.89 596.44 642.25 Q 578.44 585.25 560.44 528.25 C 560 527.2 559.45 526.15 559 525.07 Z "
            fill="#4f8077"/>
        <path
            d=" M 289 525.07 L 289.13 523.8 L 289.96 522.63 L 291.2 515.26 C 291.2 514.08 291.2 512.88 292.26 512.07 L 292.34 511.65 C 292.34 510.48 292.34 509.29 293.41 508.47 L 293.95 508.28 L 293.95 506.21 C 290.09 505 288.57 501.75 287.75 498.21 C 284 482.28 278.22 466.94 274.22 451.1 C 272.58 444.6 269.14 438.82 268.28 431.96 C 267.475 425.33 265.71 418.852 263.04 412.73 C 258.75 403.11 256.69 392.87 253.64 382.92 C 249.85 370.55 247.64 357.66 243.33 345.48 C 237.44 328.59 234 310.94 228 294 C 223.94 282.51 221.08 270.59 217.28 259 C 214.1 249.29 211.28 239.42 208.43 229.68 C 204.62 216.5 201.04 203.21 197.06 190.05 C 196.33 187.62 194.66 187.18 192.6 187.05 C 190.96 192.05 189.28 197.13 187.7 202.19 Q 118.3 423.88 48.91 645.53 C 46 655 50.25 660.76 60.49 660.85 C 76.54 660.99 92.6 660.85 108.65 660.85 L 226.65 660.85 C 240.65 660.85 247.26 655.93 251.57 642.29 Q 269.57 585.29 287.57 528.29 C 288 527.2 288.55 526.15 289 525.07 Z "
            fill="#4f8077"/>
        <path
            d=" M 347 186.76 L 348.13 187.02 C 348.87 187.92 349.86 187.79 350.84 187.68 C 358.03 190.68 361.54 196.32 363.84 203.68 Q 391.72 292.39 420.09 380.94 C 420.72 382.94 420.92 385.17 423.09 387.3 C 425.33 380.37 427.49 373.82 429.57 367.24 Q 453.91 290.49 478.23 213.74 C 479.64 209.31 480.91 204.83 482.38 200.42 C 485.38 191.5 491.7 186.95 501.09 186.95 Q 575.09 186.95 649.02 186.95 C 649.193 187.208 649.51 187.328 649.81 187.25 L 651.99 187.97 L 652.21 188.09 C 652.561 188.742 653.274 189.114 654.01 189.03 L 654.15 189.12 L 654.88 189.7 L 655.88 190.23 C 655.922 190.532 656.02 190.824 656.17 191.09 C 653.55 194.93 655.53 199.45 654.17 203.64 C 647.59 223.47 641.43 243.44 635.11 263.36 C 626 291.64 617.08 320 608 348.37 Q 591.14 400.86 574 453.28 C 573.182 455.291 572.84 457.465 573 459.63 C 571 460.42 571.1 462.26 570.85 463.92 C 570.272 464.41 570.02 465.184 570.2 465.92 L 569.87 466.92 C 569.262 467.389 569.02 468.194 569.27 468.92 L 568.96 470.14 C 568.343 470.485 568.064 471.224 568.3 471.89 L 568 473.2 C 567.388 473.509 567.118 474.237 567.38 474.87 L 557.89 504.87 C 557.312 505.36 557.06 506.134 557.24 506.87 L 556.9 507.87 C 556.294 508.341 556.053 509.144 556.3 509.87 L 555.99 511.1 C 555.375 511.441 555.099 512.179 555.34 512.84 L 555 514.18 C 554.394 514.473 554.125 515.191 554.39 515.81 L 544.89 545.81 C 544.312 546.3 544.06 547.074 544.24 547.81 L 543.9 548.81 C 543.3 549.285 543.064 550.086 543.31 550.81 L 542.99 552.04 C 542.373 552.385 542.098 553.126 542.34 553.79 L 542 555.11 C 541.4 555.414 541.135 556.128 541.39 556.75 L 531.88 586.75 C 531.306 587.242 531.058 588.016 531.24 588.75 L 530.89 589.75 C 530.288 590.223 530.051 591.026 530.3 591.75 L 529.98 592.99 C 529.368 593.334 529.094 594.069 529.33 594.73 L 528.99 596.05 C 528.394 596.358 528.13 597.068 528.38 597.69 L 518.86 627.69 C 518.289 628.184 518.046 628.958 518.23 629.69 L 517.88 630.69 C 517.282 631.166 517.049 631.968 517.3 632.69 L 516.98 633.94 C 516.375 634.28 516.104 635.007 516.34 635.66 L 515.99 637 C 515.396 637.304 515.131 638.011 515.38 638.63 C 514.619 640.456 513.977 642.33 513.46 644.24 C 511.74 652.56 506.78 658 498.97 661.02 L 352.06 660.97 C 342.06 660.97 335.71 656.64 332.67 647.1 Q 308.81 572.33 285.13 497.5 Q 259.32 416.03 233.58 334.5 Q 212.21 267.05 190.74 199.62 C 188.28 191.86 191.74 186.91 200.06 186.71 C 208.38 186.51 216.72 186.71 225.06 186.66 L 347 186.76 Z "
            fill="#80cbc4"/>
        <g>
            <rect class="ribbon" x="0" y="600" width="848" height="200" fill="#009688"/>
            <g fill="white">
                <path
                    d="M125.2 735.88L162.52 735.88L162.52 750L107.62 750L107.62 664.69L125.2 664.69ZM189.36 750L172.36 750L172.36 686.6L189.36 686.6ZM171.37 670.2Q171.37 666.39 173.92 663.93Q176.46 661.46 180.86 661.46Q185.2 661.46 187.77 663.93Q190.35 666.39 190.35 670.2Q190.35 674.06 187.74 676.52Q185.14 678.98 180.86 678.98Q176.58 678.98 173.97 676.52Q171.37 674.06 171.37 670.2ZM223.57 671.02L223.57 686.6L234.41 686.6L234.41 699.02L223.57 699.02L223.57 730.66Q223.57 734.18 224.92 735.7Q226.27 737.23 230.08 737.23Q232.89 737.23 235.06 736.82L235.06 749.65Q230.08 751.17 224.8 751.17Q206.99 751.17 206.64 733.18L206.64 699.02L197.38 699.02L197.38 686.6L206.64 686.6L206.64 671.02ZM273.03 751.17Q259.08 751.17 250.32 742.62Q241.56 734.06 241.56 719.82L241.56 718.18Q241.56 708.63 245.25 701.1Q248.95 693.57 255.71 689.5Q262.48 685.43 271.15 685.43Q284.16 685.43 291.63 693.63Q299.1 701.84 299.1 716.89L299.1 723.81L258.73 723.81Q259.55 730.02 263.68 733.77Q267.81 737.52 274.14 737.52Q283.93 737.52 289.43 730.43L297.75 739.75Q293.95 745.14 287.44 748.15Q280.94 751.17 273.03 751.17ZM271.09 699.14Q266.05 699.14 262.92 702.54Q259.79 705.94 258.91 712.27L282.46 712.27L282.46 710.92Q282.34 705.29 279.41 702.22Q276.48 699.14 271.09 699.14ZM371.23 728.85L390.57 664.69L410.14 664.69L380.43 750L362.09 750L332.5 664.69L352.01 664.69ZM443.65 751.17Q429.71 751.17 420.95 742.62Q412.19 734.06 412.19 719.82L412.19 718.18Q412.19 708.63 415.88 701.1Q419.57 693.57 426.34 689.5Q433.11 685.43 441.78 685.43Q454.79 685.43 462.26 693.63Q469.73 701.84 469.73 716.89L469.73 723.81L429.36 723.81Q430.18 730.02 434.31 733.77Q438.44 737.52 444.77 737.52Q454.55 737.52 460.06 730.43L468.38 739.75Q464.57 745.14 458.07 748.15Q451.56 751.17 443.65 751.17ZM441.72 699.14Q436.68 699.14 433.54 702.54Q430.41 705.94 429.53 712.27L453.09 712.27L453.09 710.92Q452.97 705.29 450.04 702.22Q447.11 699.14 441.72 699.14ZM514.96 702.48Q511.5 702.01 508.87 702.01Q499.26 702.01 496.27 708.52L496.27 750L479.34 750L479.34 686.6L495.33 686.6L495.8 694.16Q500.9 685.43 509.92 685.43Q512.73 685.43 515.2 686.19ZM557.44 732.48Q557.44 729.38 554.37 727.59Q551.29 725.8 544.49 724.39Q521.88 719.65 521.88 705.18Q521.88 696.74 528.88 691.08Q535.88 685.43 547.19 685.43Q559.26 685.43 566.49 691.11Q573.73 696.8 573.73 705.88L556.8 705.88Q556.8 702.25 554.45 699.87Q552.11 697.5 547.13 697.5Q542.85 697.5 540.51 699.43Q538.16 701.37 538.16 704.36Q538.16 707.17 540.83 708.9Q543.5 710.63 549.82 711.88Q556.15 713.14 560.49 714.73Q573.91 719.65 573.91 731.78Q573.91 740.45 566.46 745.81Q559.02 751.17 547.25 751.17Q539.28 751.17 533.1 748.33Q526.91 745.49 523.4 740.54Q519.88 735.59 519.88 729.84L535.94 729.84Q536.17 734.36 539.28 736.76Q542.38 739.16 547.6 739.16Q552.46 739.16 554.95 737.31Q557.44 735.47 557.44 732.48ZM602.68 750L585.68 750L585.68 686.6L602.68 686.6ZM584.69 670.2Q584.69 666.39 587.24 663.93Q589.79 661.46 594.18 661.46Q598.52 661.46 601.09 663.93Q603.67 666.39 603.67 670.2Q603.67 674.06 601.06 676.52Q598.46 678.98 594.18 678.98Q589.9 678.98 587.29 676.52Q584.69 674.06 584.69 670.2ZM613.98 717.71Q613.98 708.28 617.62 700.9Q621.25 693.52 628.08 689.47Q634.9 685.43 643.93 685.43Q656.76 685.43 664.87 693.28Q672.99 701.13 673.93 714.61L674.04 718.95Q674.04 733.54 665.9 742.35Q657.75 751.17 644.04 751.17Q630.33 751.17 622.16 742.38Q613.98 733.59 613.98 718.48ZM630.92 718.95Q630.92 727.97 634.32 732.74Q637.71 737.52 644.04 737.52Q650.2 737.52 653.65 732.8Q657.11 728.09 657.11 717.71Q657.11 708.87 653.65 704Q650.2 699.14 643.93 699.14Q637.71 699.14 634.32 703.97Q630.92 708.81 630.92 718.95ZM700.06 686.6L700.59 693.93Q707.38 685.43 718.81 685.43Q728.89 685.43 733.81 691.35Q738.73 697.27 738.85 709.04L738.85 750L721.91 750L721.91 709.45Q721.91 704.06 719.57 701.63Q717.23 699.2 711.78 699.2Q704.63 699.2 701.05 705.29L701.05 750L684.12 750L684.12 686.6Z"/>
            </g>
        </g>
    </g>
</svg>
